<svg width="40" height="41" viewBox="0 0 40 41" fill="none" xmlns="http://www.w3.org/2000/svg">
<circle cx="20" cy="20.5" r="20" fill="#E7EEFF"/>
<path d="M16.5305 25.5V14.5909H20.419C21.2642 14.5909 21.9656 14.7365 22.5231 15.0277C23.0842 15.3189 23.5032 15.7219 23.7802 16.2369C24.0572 16.7482 24.1957 17.3395 24.1957 18.0107C24.1957 18.6783 24.0554 19.266 23.7749 19.7738C23.4979 20.2781 23.0788 20.6705 22.5178 20.951C21.9602 21.2315 21.2589 21.3718 20.4137 21.3718H17.468V19.9549H20.2646C20.7972 19.9549 21.2305 19.8786 21.5643 19.7259C21.9016 19.5732 22.1484 19.3512 22.3047 19.06C22.4609 18.7688 22.5391 18.419 22.5391 18.0107C22.5391 17.5987 22.4592 17.2418 22.2994 16.94C22.1431 16.6381 21.8963 16.4073 21.5589 16.2475C21.2251 16.0842 20.7866 16.0025 20.2433 16.0025H18.1765V25.5H16.5305ZM21.9158 20.5781L24.6112 25.5H22.7362L20.0941 20.5781H21.9158Z" fill="#2E31BE"/>
</svg>
